<?xml version="1.0" standalone="no"?><!DOCTYPE svg PUBLIC "-//W3C//DTD SVG 1.1//EN" "http://www.w3.org/Graphics/SVG/1.1/DTD/svg11.dtd"><svg class="icon" width="200px" height="200.00px" viewBox="0 0 1024 1024" version="1.1" xmlns="http://www.w3.org/2000/svg"><path d="M164.375 0h473.302L928 289.811v666.566c0 37.347-30.33 67.623-67.742 67.623H164.375c-37.413 0-67.742-30.276-67.742-67.623V67.623C96.633 30.276 126.963 0 164.375 0z" fill="#19A15F" /><path d="M350.749 434v0.018h138.037V434h57.963v0.018h126.037V434h57.963v0.018h0.019v57.963h-0.02v60.037h0.02v57.963h-0.02v60.037h0.02v57.963h-0.02v60.037h0.02v57.963h-0.02V846h-57.961l-0.001-0.019H546.749V846h-57.962l-0.001-0.019H350.749V846h-57.962l-0.001-0.019h-0.018V788.02l0.018-0.001v-60.037h-0.018V670.02l0.018-0.001v-60.037h-0.018V552.02l0.018-0.001v-60.037h-0.018V434.02l0.018-0.001V434h57.963z m138.037 293.981H350.749v60.037h138.037v-60.037z m184 0H546.749v60.037h126.037v-60.037z m-184-118H350.749v60.037h138.037v-60.037z m184 0H546.749v60.037h126.037v-60.037z m-184-118H350.749v60.037h138.037v-60.037z m184 0H546.749v60.037h126.037v-60.037z" fill="#FFFFFF" /><path d="M638.117 0L928 289.811v166.153L661.63 273.41z" fill="#128D51" /><path d="M638.065 0L928 289.811H705.716c-37.363 0-67.651-30.275-67.651-67.622V0z" fill="#93D3B5" /></svg>