<?xml version="1.0" standalone="no"?><!DOCTYPE svg PUBLIC "-//W3C//DTD SVG 1.1//EN" "http://www.w3.org/Graphics/SVG/1.1/DTD/svg11.dtd"><svg class="icon" width="200px" height="200.00px" viewBox="0 0 1024 1024" version="1.1" xmlns="http://www.w3.org/2000/svg"><path d="M673.6384 705.08544h-26.3168c-9.69728 0-17.5616 7.86432-17.5616 17.5616v78.99136c0 9.69728 7.86432 17.5616 17.55136 17.5616h87.76704c9.69728 0 17.5616-7.86432 17.5616-17.5616h0.01024v-78.99136c0-9.69728-7.86432-17.5616-17.5616-17.5616h-26.32704v49.3568c0 7.24992-6.67648 12.0832-14.92992 12.0832h-7.45472c-8.2432 0-12.73856-4.83328-12.73856-12.0832v-49.3568z m13.2608-149.1968H524.4416v35.11296h149.1968v-20.34688c0-7.23968 4.5056-14.77632 12.73856-14.77632h0.512z m-381.9008 149.1968h-26.3168c-9.69728 0-17.5616 7.86432-17.5616 17.5616v78.99136c0 9.69728 7.86432 17.5616 17.5616 17.5616h87.7568c9.69728 0 17.5616-7.86432 17.5616-17.5616h0.01024v-78.99136c0-9.69728-7.86432-17.5616-17.5616-17.5616h-26.32704v49.3568c0 7.24992-6.67648 12.0832-14.92992 12.0832h-7.45472c-8.23296 0-12.73856-4.83328-12.73856-12.0832v-49.3568z m35.1232-114.08384h149.1968v-35.1232h-154.5216c-2.05824 0-4.15744 0.1536-6.2464 0.43008 6.62528 1.67936 11.5712 8.11008 11.5712 14.34624v20.34688z m184.32 0h-35.1232v114.08384h35.1232V591.0016z m0-35.1232v-57.0368c0-9.69728-6.68672-17.5616-14.92992-17.5616h-7.45472c-8.25344 0-12.73856 7.86432-12.73856 17.5616v57.0368h35.1232z m-35.1232 149.20704h-26.32704c-9.69728 0-17.5616 7.86432-17.5616 17.5616v78.99136c0 9.69728 7.86432 17.5616 17.5616 17.5616h87.76704c9.69728 0 17.5616-7.86432 17.5616-17.5616v-78.99136c0-9.69728-7.86432-17.5616-17.5616-17.5616h-26.3168v39.51616c0 9.68704-6.67648 17.55136-14.92992 17.55136h-7.45472c-8.2432 0-12.73856-7.86432-12.73856-17.55136v-39.51616zM712.3968 7.3728l0.3584 0.36864 214.65088 224.38912 0.32768 0.3584 6.63552 6.93248v707.66592c0 41.9328-34.11968 76.04224-76.06272 76.04224H163.62496c-41.94304 0-76.06272-34.11968-76.06272-76.04224V76.0832C87.552 34.12992 121.68192 0 163.62496 0h541.696l7.0656 7.3728z m-108.9536 451.96288V345.2416c0-9.69728-7.87456-17.5616-17.5616-17.5616H427.8784a17.57184 17.57184 0 0 0-17.55136 17.5616v114.09408c0 9.69728 7.86432 17.5616 17.55136 17.5616h157.99296c9.68704 0 17.55136-7.86432 17.55136-17.5616z m-298.43456 245.76h35.1232V590.99136h-5.3248c-13.88544 0-29.78816-4.5056-29.78816-12.73856v-7.45472c0-7.02464 11.54048-12.91264 23.552-14.49984a13.6192 13.6192 0 0 0-3.36896-0.43008h-7.45472c-8.2432 0-12.73856 7.53664-12.73856 14.77632v134.43072z m368.64 0h35.1232V570.64448c0-7.24992-6.68672-14.77632-14.92992-14.77632h-6.93248c13.88544 0 21.85216 6.67648 21.85216 14.92992v7.45472c0 8.2432-7.96672 12.73856-21.85216 12.73856h-13.2608v114.08384z" fill="#446AC1" /></svg>